<?xml version="1.0" encoding="utf-8"?>
<!-- Generator: Adobe Illustrator 16.0.0, SVG Export Plug-In . SVG Version: 6.00 Build 0)  -->
<!DOCTYPE svg PUBLIC "-//W3C//DTD SVG 1.1//EN" "http://www.w3.org/Graphics/SVG/1.1/DTD/svg11.dtd">
<svg version="1.1" xmlns="http://www.w3.org/2000/svg" xmlns:xlink="http://www.w3.org/1999/xlink" x="0px" y="0px" width="2800px"
	 height="1960px" viewBox="0 0 2800 1960" enable-background="new 0 0 2800 1960" xml:space="preserve">
<g id="Guides_For_Artboard_3_">
</g>
<g id="Guides_For_Artboard_2_">
</g>
<g id="Guides_For_Artboard_1_">
</g>
<g id="Guides_For_Artboard">
	<g>
		<g>
			<rect x="0" y="0.5" fill="#D3F4FF" width="2800.1" height="1958.9"/>
		</g>
		<g>
			<g>
				<polygon fill="#71DEE8" points="3,1441.3 1351.8,466.2 1595.1,580.6 1676.3,903.4 294.8,1958.3 0,1957.9 				"/>
			</g>
		</g>
		<g>
			<g>
				<g>
					<polygon fill="#32BED3" points="1407.9,1280.9 1182.7,1280.9 1182.4,1599 1148.2,1598.9 1148.3,1523.2 1042.2,1523.1 
						1042.3,1424.6 823.4,1424.4 823.2,1598.6 724,1598.5 723.9,1712.1 617.9,1712 615.2,1613.4 584.4,1613.3 587.2,1613.5 
						443.5,1613.4 443.8,1280.2 214.6,1280 214.2,1707.9 212.4,1707.9 212.4,1957.8 214,1957.8 275.5,1957.8 443.2,1958 
						586.8,1958.1 602.2,1958.1 617.6,1958.2 723.7,1958.3 754.5,1958.3 822.9,1958.4 857.1,1958.4 1041.8,1958.6 1072.6,1958.6 
						1147.9,1958.7 1182.1,1958.7 1322.3,1958.8 1407.9,1958.9 1408.2,1599.2 					"/>
				</g>
				<g>
					
						<rect x="212.7" y="1280" transform="matrix(-1 -9.020884e-004 9.020884e-004 -1 531.0677 3238.1272)" fill="#49D2E8" width="107.2" height="677.8"/>
				</g>
				<g>
					<polygon fill="#EEFCFF" points="1259.4,1334.2 1313.6,1334.3 1313.7,1316.8 1259.4,1316.8 					"/>
				</g>
				<g>
					<polygon fill="#EEFCFF" points="1068.8,1573.6 1123.1,1573.6 1123.1,1556.2 1068.8,1556.1 					"/>
				</g>
				<g>
					
						<rect x="1335" y="1548.7" transform="matrix(-1 -9.183008e-004 9.183008e-004 -1 2722.7246 3116.0625)" fill="#EEFCFF" width="54.2" height="17.5"/>
				</g>
				<g>
					
						<rect x="747.7" y="1617.5" transform="matrix(-1 -9.361822e-004 9.361822e-004 -1 1548.1238 3253.2354)" fill="#CACACA" width="54.2" height="17.5"/>
				</g>
				<g>
					
						<rect x="960.5" y="1709.1" transform="matrix(-1 -9.183008e-004 9.183008e-004 -1 1973.6555 3436.6123)" fill="#EEFCFF" width="54.2" height="17.4"/>
				</g>
				<g>
					
						<rect x="491.7" y="1626.9" transform="matrix(-1 -9.361822e-004 9.361822e-004 -1 1036.1257 3271.7603)" fill="#EEFCFF" width="54.2" height="17.5"/>
				</g>
				<g>
					
						<rect x="299" y="1308.8" transform="matrix(-1 -9.543020e-004 9.543020e-004 -1 651.0746 2635.3916)" fill="#EEFCFF" width="54.2" height="17.5"/>
				</g>
				<g>
					
						<rect x="1182.4" y="1280.9" transform="matrix(-1 -9.872038e-004 9.872038e-004 -1 2436.4092 3240.8413)" fill="#49D2E8" width="73.2" height="677.8"/>
				</g>
				<g>
					
						<rect x="299.2" y="1556.2" transform="matrix(-1 -9.361822e-004 9.361822e-004 -1 651.1345 3130.0557)" fill="#EEFCFF" width="54.2" height="17.5"/>
				</g>
				<g>
					<polygon fill="#49D2E8" points="930.7,1956.4 931.2,1425.1 821,1425 820.8,1599.2 721.6,1599.1 721.5,1712.7 615.5,1712.6 
						615.2,1957.5 					"/>
				</g>
				<g>
					
						<rect x="1205.4" y="1610.1" transform="matrix(-1 -9.361822e-004 9.361822e-004 -1 2463.5405 3238.8604)" fill="#EEFCFF" width="54.2" height="17.5"/>
				</g>
				<g>
					<polygon fill="#EEFCFF" points="1259.4,1758.4 1313.6,1758.4 1313.7,1741 1259.4,1740.9 					"/>
				</g>
				<g>
					
						<rect x="906.5" y="1437.5" transform="matrix(-1 -9.543020e-004 9.543020e-004 -1 1865.9241 2893.4067)" fill="#EEFCFF" width="54.2" height="17.5"/>
				</g>
				<g>
					
						<rect x="906.5" y="1556.2" transform="matrix(-1 -8.460600e-004 8.460600e-004 -1 1865.9803 3130.5452)" fill="#EEFCFF" width="54.2" height="17.5"/>
				</g>
				<g>
					
						<rect x="242" y="1685.5" transform="matrix(-1 -9.543020e-004 9.543020e-004 -1 536.5413 3388.748)" fill="#EEFCFF" width="54.2" height="17.5"/>
				</g>
				<g>
					
						<rect x="437.5" y="1742.2" transform="matrix(-1 -9.183008e-004 9.183008e-004 -1 927.5424 3502.25)" fill="#EEFCFF" width="54.2" height="17.5"/>
				</g>
				<g>
					
						<rect x="852.4" y="1710.4" transform="matrix(-1 -9.361822e-004 9.361822e-004 -1 1757.397 3439.1421)" fill="#EEFCFF" width="54.2" height="17.5"/>
				</g>
				<g>
					<polygon fill="#EEFCFF" points="906.4,1858.7 960.6,1858.7 960.6,1841.3 906.4,1841.2 					"/>
				</g>
				<g>
					<polygon fill="#32BED3" points="1408.5,1280.3 1633.7,1280.3 1634,1598.4 1668.2,1598.3 1668.1,1522.6 1774.2,1522.5 
						1774.1,1424.1 1993,1423.9 1993.2,1598 2092.4,1597.9 2092.5,1711.5 2198.5,1711.4 2201.2,1611.9 2232,1611.9 2229.2,1613 
						2372.9,1612.8 2372.6,1279.6 2601.8,1279.4 2602.2,1707.3 2604,1707.3 2604,1957.2 2602.4,1957.2 2540.9,1957.3 2373.2,1957.4 
						2229.6,1957.5 2214.2,1957.6 2198.8,1957.6 2092.7,1957.7 2061.9,1957.7 1993.5,1957.8 1959.3,1957.8 1774.6,1958 1743.8,1958 
						1668.5,1958.1 1634.3,1958.1 1494.1,1958.2 1408.5,1958.3 1408.2,1598.6 					"/>
				</g>
				<g>
					<rect x="2496.6" y="1279.5" fill="#49D2E8" width="107.2" height="677.8"/>
				</g>
				<g>
					<polygon fill="#EEFCFF" points="1557,1335.5 1502.8,1335.6 1502.8,1318.1 1557,1318.1 					"/>
				</g>
				<g>
					<rect x="1693.3" y="1556.2" fill="#EEFCFF" width="54.2" height="17.5"/>
				</g>
				<g>
					<rect x="1427.2" y="1548.7" fill="#EEFCFF" width="54.2" height="17.5"/>
				</g>
				<g>
					<rect x="2014.5" y="1618.8" fill="#CACACA" width="54.2" height="17.5"/>
				</g>
				<g>
					<rect x="1801.7" y="1710.4" fill="#EEFCFF" width="54.2" height="17.5"/>
				</g>
				<g>
					<rect x="2270.5" y="1628.2" fill="#EEFCFF" width="54.2" height="17.5"/>
				</g>
				<g>
					<rect x="2463.1" y="1310.1" fill="#EEFCFF" width="54.2" height="17.5"/>
				</g>
				<g>
					<polygon fill="#49D2E8" points="1634.3,1958.1 1561.1,1958.2 1560.5,1280.4 1633.7,1280.3 					"/>
				</g>
				<g>
					<rect x="2463" y="1557.4" fill="#EEFCFF" width="54.2" height="17.5"/>
				</g>
				<g>
					<polygon fill="#49D2E8" points="1885.7,1955.8 1885.2,1424.6 1995.4,1424.5 1995.6,1598.6 2094.8,1598.5 2094.9,1712.1 
						2201,1712 2201.2,1956.9 					"/>
				</g>
				<g>
					<rect x="1556.8" y="1610.1" fill="#EEFCFF" width="54.2" height="17.5"/>
				</g>
				<g>
					<polygon fill="#EEFCFF" points="1557,1759.7 1502.8,1759.7 1502.8,1742.3 1557,1742.2 					"/>
				</g>
				<g>
					<rect x="1855.6" y="1438.8" fill="#EEFCFF" width="54.2" height="17.5"/>
				</g>
				<g>
					<rect x="1855.6" y="1556.2" fill="#EEFCFF" width="54.2" height="17.5"/>
				</g>
				<g>
					<rect x="2520.2" y="1686.8" fill="#EEFCFF" width="54.2" height="17.5"/>
				</g>
				<g>
					<rect x="2324.7" y="1743.5" fill="#EEFCFF" width="54.2" height="17.5"/>
				</g>
				<g>
					<rect x="1909.8" y="1711.7" fill="#EEFCFF" width="54.2" height="17.5"/>
				</g>
				<g>
					<rect x="1855.8" y="1842.6" fill="#EEFCFF" width="54.2" height="17.5"/>
				</g>
				<g>
					<rect x="1389.2" y="1280.9" fill="#32BED3" width="38" height="677.5"/>
				</g>
			</g>
			<g>
				<g>
					<rect x="834.1" y="1207.7" fill="#EEFCFF" width="194.3" height="194.3"/>
				</g>
				<g>
					<g>
						<g>
							<g>
								<path fill="#32BED3" d="M927,1277.4c-0.1,8.4-7.1,15.1-15.5,15c-8.4-0.1-15.1-7.1-15-15.5c0.1-8.4,7.1-15.1,15.5-15
									C920.4,1262,927.1,1268.9,927,1277.4z"/>
							</g>
						</g>
						<g>
							<g>
								<path fill="#32BED3" d="M915.1,1299l-3.7,6.7l-3.5-6.8c-13.1,1.6-23.4,12.6-23.6,26.2l-0.3,20.2l53.6,0.8l0.3-20.2
									C938.1,1312.4,928.1,1301,915.1,1299z"/>
							</g>
						</g>
						<g>
							<g>
								<path fill="#32BED3" d="M969.5,1289.1c-0.1,7.1-5.9,12.7-13,12.6c-7.1-0.1-12.7-5.9-12.6-13c0.1-7.1,5.9-12.7,13-12.6
									C964,1276.2,969.6,1282,969.5,1289.1z"/>
							</g>
						</g>
						<g>
							<g>
								<path fill="#32BED3" d="M959.5,1307.3l-3.1,5.6l-3-5.7c-11,1.3-19.6,10.6-19.8,22l-0.3,16.9l44.9,0.7l0.3-16.9
									C978.8,1318.4,970.4,1308.9,959.5,1307.3z"/>
							</g>
						</g>
					</g>
				</g>
			</g>
			<g>
				<g>
					<rect x="1304.4" y="1069.8" fill="#EEFCFF" width="194.3" height="194.3"/>
				</g>
				<g>
					<g>
						<g>
							<g>
								<polygon fill="#32BED3" points="1347,1207.7 1372.3,1171.5 1393.1,1190.6 1415.9,1158.2 1434.9,1182.9 1456,1135.2 
									1456.1,1207.6 								"/>
							</g>
						</g>
						<g>
							<circle fill="#32BED3" cx="1373.2" cy="1137.2" r="11"/>
						</g>
					</g>
				</g>
			</g>
			<g>
				<g>
					<rect x="229.2" y="1069.8" fill="#EEFCFF" width="194.3" height="194.3"/>
				</g>
				<g>
					<g>
						<g>
							<rect x="273.3" y="1142.9" fill="#32BED3" width="106.1" height="66.4"/>
						</g>
						<g>
							<rect x="294" y="1124.6" fill="#32BED3" width="64.6" height="36.5"/>
						</g>
						<g>
							<circle fill="#EEFCFF" cx="326.3" cy="1176" r="18.4"/>
						</g>
					</g>
				</g>
			</g>
			<g>
				<g>
					<rect x="2385.3" y="1069.8" fill="#EEFCFF" width="194.3" height="194.3"/>
				</g>
				<g>
					<g>
						<g>
							<path fill="#32BED3" d="M2479.7,1135.3v-9.7h-38.4v71.3l0.6-0.7c2.1,6.9,9.5,12,18.4,12c10.5,0,19-7.1,19-15.9
								c0-8.8-8.5-15.9-19-15.9c-2.9,0-5.6,0.5-8,1.5v-42.6H2479.7z"/>
						</g>
						<g>
							<path fill="#32BED3" d="M2501.5,1125.6v71.3l0.6-0.7c2.1,6.9,9.5,12,18.4,12c10.5,0,19-7.1,19-15.9c0-8.8-8.5-15.9-19-15.9
								c-2.9,0-5.6,0.5-8,1.5v-42.6L2501.5,1125.6z"/>
						</g>
						<g>
							<rect x="2441.3" y="1125.6" fill="#32BED3" width="71.1" height="9.7"/>
						</g>
					</g>
				</g>
			</g>
			<g>
				<g>
					<rect x="1785.6" y="1207.7" fill="#EEFCFF" width="194.3" height="194.3"/>
				</g>
				<g>
					<g>
						<g>
							<path fill="#32BED3" d="M1917.8,1294.4c-0.2,23.4-35.1,63.3-35.1,63.3s-35.3-40.5-35.1-63.9c0.2-23.4,16-42.2,35.4-42
								C1902.5,1252,1918,1271.1,1917.8,1294.4z"/>
						</g>
						<g>
							<circle fill="#EEFCFF" cx="1882.8" cy="1293.3" r="11.5"/>
						</g>
					</g>
				</g>
			</g>
			<g>
				<g>
					<path fill="#EEFCFF" d="M2498.2,509.8h-179.3c-13.2,0-23.9-10.7-23.9-23.9c0-13.2,10.7-23.9,23.9-23.9h179.3
						c13.2,0,23.9,10.7,23.9,23.9C2522,499.1,2511.3,509.8,2498.2,509.8z"/>
				</g>
			</g>
			<g>
				<g>
					<path fill="#EEFCFF" d="M2625.3,509.8h-53.9c-13.2,0-23.9-10.7-23.9-23.9c0-13.2,10.7-23.9,23.9-23.9h53.9
						c13.2,0,23.9,10.7,23.9,23.9C2649.2,499.1,2638.5,509.8,2625.3,509.8z"/>
				</g>
			</g>
			<g>
				<g>
					<path fill="#EEFCFF" d="M745.8,932.4H566.5c-13.2,0-23.9-10.7-23.9-23.9c0-13.2,10.7-23.9,23.9-23.9h179.3
						c13.2,0,23.9,10.7,23.9,23.9C769.7,921.8,759,932.4,745.8,932.4z"/>
				</g>
			</g>
			<g>
				<g>
					<path fill="#EEFCFF" d="M872.9,932.4H819c-13.2,0-23.9-10.7-23.9-23.9c0-13.2,10.7-23.9,23.9-23.9h53.9
						c13.2,0,23.9,10.7,23.9,23.9C896.8,921.8,886.1,932.4,872.9,932.4z"/>
				</g>
			</g>
			<g>
				<g>
					<path fill="#EEFCFF" d="M346.1,509.8H166.8c-13.2,0-23.9-10.7-23.9-23.9c0-13.2,10.7-23.9,23.9-23.9h179.3
						c13.2,0,23.9,10.7,23.9,23.9C369.9,499.1,359.2,509.8,346.1,509.8z"/>
				</g>
			</g>
			<g>
				<g>
					<path fill="#EEFCFF" d="M473.2,509.8h-53.9c-13.2,0-23.9-10.7-23.9-23.9c0-13.2,10.7-23.9,23.9-23.9h53.9
						c13.2,0,23.9,10.7,23.9,23.9C497.1,499.1,486.4,509.8,473.2,509.8z"/>
				</g>
			</g>
			<g>
				<g>
					<path fill="#EEFCFF" d="M2209.2,932.4h-179.3c-13.2,0-23.9-10.7-23.9-23.9c0-13.2,10.7-23.9,23.9-23.9h179.3
						c13.2,0,23.9,10.7,23.9,23.9C2233.1,921.8,2222.4,932.4,2209.2,932.4z"/>
				</g>
			</g>
			<g>
				<g>
					<path fill="#EEFCFF" d="M2336.4,932.4h-53.9c-13.2,0-23.9-10.7-23.9-23.9c0-13.2,10.7-23.9,23.9-23.9h53.9
						c13.2,0,23.9,10.7,23.9,23.9C2360.3,921.8,2349.6,932.4,2336.4,932.4z"/>
				</g>
			</g>
		</g>
		<g>
			<g>
				<g>
					<polygon fill="#32BED3" points="1425.7,819 1470.8,680.5 1518.5,737.6 					"/>
				</g>
				<g>
					<path fill="#EEFCFF" d="M1718.7,910.5l220.1-599.2c7.3-29.1-21.5-25.5-21.5-25.5l-660.5,204.3c0,0-33.4,9.5-11.6,33.6
						l166.5,124l259-133.9l-199.9,166.7l200.4,239.9C1671.2,920.3,1702.5,953.3,1718.7,910.5z"/>
				</g>
				<g>
					<polygon fill="#AEEDFF" points="1389.2,631 1425.7,819 1470.8,680.5 1828.8,397.8 					"/>
					<path fill="#EEFCFF" d="M1425.7,824c-0.1,0-0.2,0-0.3,0c-2.3-0.1-4.1-1.8-4.6-4l-36.5-188.1c-0.4-2.1,0.6-4.3,2.5-5.3
						l439.6-233.2c2.3-1.2,5.1-0.5,6.5,1.7c1.4,2.1,0.9,5-1.1,6.6l-356.8,281.8l-44.7,137.1C1429.7,822.6,1427.8,824,1425.7,824z
						 M1394.8,633.6l32.1,165.6l39.2-120.3c0.3-0.9,0.9-1.8,1.6-2.4l315-248.8L1394.8,633.6z"/>
				</g>
			</g>
		</g>
	</g>
</g>
</svg>
